<?xml version="1.0" encoding="UTF-8"?>
<svg width="406px" height="200px" viewBox="0 0 406 200" version="1.1" xmlns="http://www.w3.org/2000/svg" xmlns:xlink="http://www.w3.org/1999/xlink">
    <title>Group 2 Copy</title>
    <g id="Page-1" stroke="none" stroke-width="1" fill="none" fill-rule="evenodd" opacity="0.571293422">
        <g id="Group-2-Copy" transform="translate(0.000000, -310.000000)" fill-rule="nonzero">
            <g style="mix-blend-mode: multiply;" transform="translate(92.636173, 434.597257) rotate(24.000000) translate(-92.636173, -434.597257) translate(-319.363827, 312.597257)" id="Asset-1">
                <g>
                    <path d="M421.672411,89.3302225 C355.475098,104.933503 275.486678,62.0337918 250.215407,11.872411 C235.306102,19.9905855 194.305514,32.7264372 129.822771,14.5536429 C64.5572895,-3.76810863 22.9976026,-0.491047373 0,1.81779124 L0,24.7199807 C67.0918714,28.10876 105.147872,52.3143261 157.442258,72.3490869 C241.56801,104.635588 336.763921,131.29895 421.672411,89.3302225 Z" id="Path" fill="#224FA0"></path>
                    <path d="M463.753924,66.9866231 C440.122676,94.2830538 415.745963,108.285043 367.02981,117.148004 C312.424481,127.053666 223.788664,109.029829 147.117565,79.5362781 C217.862216,123.218015 305.640747,171.889823 418.727824,158.595381 C536.734971,144.742349 565.659022,90.7453172 618.810693,72.9449163 C547.171484,94.4320111 514.706473,85.6062893 463.753924,66.9866231 Z" id="Path" fill="#0096D3"></path>
                    <path d="M185.769937,186.785556 C261.360112,198.292509 302.770706,194.866491 347.088614,191.812866 C408.29131,187.604821 463.120279,169.916138 501.399919,148.280086 C468.189442,162.282075 373.962636,181.274134 300.571584,160.084954 C239.294341,142.396271 211.115755,129.10183 145.514814,99.6082783 C94.4877188,76.6688495 36.9750758,72.2373689 0,78.9776881 L0,160.680784 C58.5562944,160.829741 105.557878,174.571055 185.769937,186.785556 Z" id="Path" fill="#224FA0"></path>
                    <path d="M24.4139865,224.993111 C85.7285023,230.169378 144.023884,249.459352 214.619442,238.287552 C309.852626,222.79599 373.66445,242.90523 373.66445,242.90523 C325.643285,227.504901 276.153016,217.121655 225.987787,211.922105 C144.769349,203.617734 64.2963767,212.443456 24.4139865,224.993111 Z" id="Path" fill="#224FA0"></path>
                    <path d="M627.68173,78.1584228 C570.280907,109.178787 543.183245,128.915633 488.27973,165.261221 C433.376216,201.60681 313.952685,210.432532 260.912833,204.362521 C308.175329,212.443456 427.971593,216.204628 493.497987,188.870958 C551.830642,164.516435 594.881259,135.358037 644.864703,95.7726271 C692.01538,58.5332946 746.620708,39.2805597 791.08771,37.4930717 C753.926268,33.9553352 685.268919,47.2125375 627.68173,78.1584228 Z" id="Path" fill="#224FA0"></path>
                    <path d="M608.486,201.383374 C545.717827,213.933029 516.16013,200.638587 491.075225,196.244346 C427.71068,232.366499 316.822726,219.854083 316.822726,219.854083 C316.822726,219.854083 444.558194,252.289541 520.595648,241.974246 C596.633103,231.658951 614.375175,223.540777 654.257565,205.814855 C694.139956,188.088932 717.100285,180.119715 773.532003,167.644539 C709.2729,173.640071 671.2169,188.870958 608.486,201.383374 Z" id="Path" fill="#0096D3"></path>
                    <path d="M675.652418,140.906698 C623.860876,172.752725 564.442591,190.07961 503.636314,191.068079 C503.636314,191.068079 580.232867,203.766691 654.816664,182.800947 C709.608359,167.383863 765.816438,161.686246 823.962727,160.680784 L823.962727,79.0149275 C804.543357,81.8823561 743.303388,98.453859 675.652418,140.906698 Z" id="Path" fill="#224FA0"></path>
                    <path d="M663.128602,106.981666 C622.96901,140.421993 576.523423,165.503836 526.522097,180.752784 C526.522097,180.752784 604.795947,175.911671 673.453295,128.357043 C726.53042,91.6390612 794.51685,71.120189 823.962727,66.1673578 L823.962727,42.5203816 C770.661962,47.4359735 717.920297,61.4752019 663.128602,106.981666 Z" id="Path" fill="#0096D3"></path>
                    <path d="M631.371783,66.3907937 C713.037499,23.4538434 797.647804,23.5283221 823.962727,24.7199807 L823.962727,1.85503057 C793.920478,6.13755381 688.548966,23.6772794 631.371783,66.3907937 Z" id="Path" fill="#224FA0"></path>
                </g>
            </g>
        </g>
    </g>
</svg>