<svg xmlns="http://www.w3.org/2000/svg" width="1920" height="725"><defs><linearGradient id="a" x1=".5" y1="1.85" x2=".511" gradientUnits="objectBoundingBox"><stop offset="0" stop-color="#d72344"/><stop offset=".729" stop-color="#d72344"/><stop offset="1" stop-color="#8b2346"/></linearGradient><linearGradient id="c" x1=".5" x2=".5" y2="1" gradientUnits="objectBoundingBox"><stop offset="0" stop-color="#1d486f"/><stop offset=".808" stop-color="#1d486f"/><stop offset="1" stop-color="#32355b"/></linearGradient><clipPath id="b"><path data-name="Rectangle 630" transform="translate(3485 2939)" fill="url(#a)" d="M0 0h1920v725H0z"/></clipPath></defs><g data-name="Mask Group 113" transform="translate(-3485 -2939)" clip-path="url(#b)"><g data-name="Group 2319"><path data-name="Path 2961" d="M3325.3 2505.459s59.828 190.681 654.836 420.68c116.182 48.42 558.192 202.929 548.717 424.546a167.012 167.012 0 01-2.424 22.052c-57.976 327.701-1234.597 491.5-1233.104-584.466-1.005-99.812 8.376-198.565 31.975-282.812z" fill="#ececec"/></g><g data-name="Group 2696"><g data-name="Group 2134"><path data-name="Path 2864" d="M601.343 556.4S571.455 461.138 274.2 346.236C216.159 322.048-4.66 244.857.075 134.142a83.418 83.418 0 011.211-11.017c28.96-163.712 616.778-245.542 616.031 291.986.503 49.863-4.184 99.199-15.974 141.289z" transform="translate(4876.646 2816.602)" fill="url(#c)"/></g></g></g></svg>