<svg width="669" height="179" viewBox="0 0 669 179" fill="none" xmlns="http://www.w3.org/2000/svg">
<path d="M223.02 123.33C217.637 123.33 212.412 122.665 207.345 121.335C202.278 120.005 198.162 118.232 194.995 116.015L201.17 102.145C204.147 104.108 207.598 105.692 211.525 106.895C215.452 108.098 219.315 108.7 223.115 108.7C230.335 108.7 233.945 106.895 233.945 103.285C233.945 101.385 232.9 99.9917 230.81 99.105C228.783 98.155 225.49 97.1733 220.93 96.16C215.927 95.0833 211.747 93.9433 208.39 92.74C205.033 91.4733 202.152 89.4783 199.745 86.755C197.338 84.0317 196.135 80.3583 196.135 75.735C196.135 71.6817 197.243 68.04 199.46 64.81C201.677 61.5167 204.97 58.92 209.34 57.02C213.773 55.12 219.188 54.17 225.585 54.17C229.955 54.17 234.262 54.6767 238.505 55.69C242.748 56.64 246.485 58.065 249.715 59.965L243.92 73.93C237.587 70.51 231.443 68.8 225.49 68.8C221.753 68.8 219.03 69.37 217.32 70.51C215.61 71.5867 214.755 73.0117 214.755 74.785C214.755 76.5583 215.768 77.8883 217.795 78.775C219.822 79.6617 223.083 80.58 227.58 81.53C232.647 82.6067 236.827 83.7783 240.12 85.045C243.477 86.2483 246.358 88.2117 248.765 90.935C251.235 93.595 252.47 97.2367 252.47 101.86C252.47 105.85 251.362 109.46 249.145 112.69C246.928 115.92 243.603 118.517 239.17 120.48C234.737 122.38 229.353 123.33 223.02 123.33ZM263.154 51.51H281.204V122H263.154V51.51ZM295.784 70.51H313.834V122H295.784V70.51ZM304.809 64.81C301.516 64.81 298.856 63.8917 296.829 62.055C294.802 60.2183 293.789 57.9383 293.789 55.215C293.789 52.4917 294.802 50.2117 296.829 48.375C298.856 46.5383 301.516 45.62 304.809 45.62C308.102 45.62 310.762 46.5067 312.789 48.28C314.816 49.99 315.829 52.2067 315.829 54.93C315.829 57.78 314.816 60.155 312.789 62.055C310.762 63.8917 308.102 64.81 304.809 64.81ZM383.134 51.51V122H365.939V116.87C362.583 120.86 357.548 122.855 350.834 122.855C346.148 122.855 341.873 121.778 338.009 119.625C334.146 117.408 331.074 114.273 328.794 110.22C326.578 106.167 325.469 101.48 325.469 96.16C325.469 90.84 326.578 86.185 328.794 82.195C331.074 78.1417 334.146 75.0383 338.009 72.885C341.873 70.7317 346.148 69.655 350.834 69.655C356.978 69.655 361.728 71.4283 365.084 74.975V51.51H383.134ZM354.634 108.51C357.738 108.51 360.303 107.433 362.329 105.28C364.356 103.063 365.369 100.023 365.369 96.16C365.369 92.36 364.356 89.3833 362.329 87.23C360.366 85.0767 357.801 84 354.634 84C351.468 84 348.871 85.0767 346.844 87.23C344.818 89.3833 343.804 92.36 343.804 96.16C343.804 100.023 344.818 103.063 346.844 105.28C348.871 107.433 351.468 108.51 354.634 108.51ZM450.227 96.35C450.227 96.4767 450.132 97.965 449.942 100.815H412.512C413.272 103.475 414.729 105.533 416.882 106.99C419.099 108.383 421.854 109.08 425.147 109.08C427.617 109.08 429.739 108.732 431.512 108.035C433.349 107.338 435.186 106.198 437.022 104.615L446.522 114.495C441.519 120.068 434.204 122.855 424.577 122.855C418.561 122.855 413.272 121.715 408.712 119.435C404.152 117.155 400.606 113.988 398.072 109.935C395.602 105.882 394.367 101.29 394.367 96.16C394.367 91.0933 395.571 86.565 397.977 82.575C400.447 78.5217 403.836 75.355 408.142 73.075C412.449 70.795 417.294 69.655 422.677 69.655C427.807 69.655 432.462 70.7317 436.642 72.885C440.822 74.975 444.116 78.0467 446.522 82.1C448.992 86.09 450.227 90.84 450.227 96.35ZM422.772 82.48C419.986 82.48 417.642 83.2717 415.742 84.855C413.906 86.4383 412.734 88.5917 412.227 91.315H433.317C432.811 88.5917 431.607 86.4383 429.707 84.855C427.871 83.2717 425.559 82.48 422.772 82.48ZM523.624 55.5V122H511.274V93.5H476.884V122H464.534V55.5H476.884V82.955H511.274V55.5H523.624ZM592.269 71.27V122H580.964V115.54C579.064 117.82 576.689 119.593 573.839 120.86C570.989 122.063 567.917 122.665 564.624 122.665C557.847 122.665 552.495 120.797 548.569 117.06C544.705 113.26 542.774 107.655 542.774 100.245V71.27H554.649V98.63C554.649 103.19 555.662 106.61 557.689 108.89C559.779 111.107 562.724 112.215 566.524 112.215C570.767 112.215 574.124 110.917 576.594 108.32C579.127 105.66 580.394 101.86 580.394 96.92V71.27H592.269ZM638.787 70.7C643.727 70.7 648.128 71.7767 651.992 73.93C655.918 76.0833 658.99 79.1233 661.207 83.05C663.423 86.9767 664.532 91.505 664.532 96.635C664.532 101.765 663.423 106.325 661.207 110.315C658.99 114.242 655.918 117.282 651.992 119.435C648.128 121.588 643.727 122.665 638.787 122.665C635.303 122.665 632.105 122.063 629.192 120.86C626.342 119.657 623.935 117.852 621.972 115.445V122H610.667V51.51H622.542V77.445C624.568 75.2283 626.943 73.55 629.667 72.41C632.453 71.27 635.493 70.7 638.787 70.7ZM637.457 112.5C641.827 112.5 645.405 111.043 648.192 108.13C651.042 105.217 652.467 101.385 652.467 96.635C652.467 91.885 651.042 88.0533 648.192 85.14C645.405 82.2267 641.827 80.77 637.457 80.77C634.607 80.77 632.042 81.435 629.762 82.765C627.482 84.0317 625.677 85.8683 624.347 88.275C623.017 90.6817 622.352 93.4683 622.352 96.635C622.352 99.8017 623.017 102.588 624.347 104.995C625.677 107.402 627.482 109.27 629.762 110.6C632.042 111.867 634.607 112.5 637.457 112.5Z" fill="white"/>
<g filter="url(#filter0_d)">
<rect x="84.7414" y="9.25867" width="112.069" height="117.014" rx="5" transform="rotate(45 84.7414 9.25867)" fill="#040123"/>
</g>
<g filter="url(#filter1_d)">
<rect x="85.4828" y="10" width="112.435" height="117.648" rx="5" transform="rotate(45 85.4828 10)" fill="url(#paint0_linear)"/>
</g>
<g filter="url(#filter2_d)">
<rect x="85" width="111.448" height="116.807" rx="5" transform="rotate(45 85 0)" fill="#040123"/>
</g>
<g filter="url(#filter3_d)">
<rect x="85.1899" width="112.435" height="117.648" rx="5" transform="rotate(45 85.1899 0)" fill="url(#paint1_linear)"/>
</g>
<g filter="url(#filter4_d)">
<path d="M83.735 118.14C78.4783 118.14 73.38 117.443 68.44 116.05C63.5633 114.593 59.6367 112.725 56.66 110.445L61.885 98.855C64.735 100.945 68.1233 102.623 72.05 103.89C75.9767 105.157 79.9033 105.79 83.83 105.79C88.2 105.79 91.43 105.157 93.52 103.89C95.61 102.56 96.655 100.818 96.655 98.665C96.655 97.0817 96.0217 95.7833 94.755 94.77C93.5517 93.6933 91.9683 92.8383 90.005 92.205C88.105 91.5717 85.5083 90.875 82.215 90.115C77.1483 88.9117 73 87.7083 69.77 86.505C66.54 85.3017 63.7533 83.37 61.41 80.71C59.13 78.05 57.99 74.5033 57.99 70.07C57.99 66.2067 59.035 62.7233 61.125 59.62C63.215 56.4533 66.35 53.9517 70.53 52.115C74.7733 50.2783 79.935 49.36 86.015 49.36C90.2583 49.36 94.4067 49.8667 98.46 50.88C102.513 51.8933 106.06 53.35 109.1 55.25L104.35 66.935C98.2067 63.4517 92.0633 61.71 85.92 61.71C81.6133 61.71 78.415 62.4067 76.325 63.8C74.2983 65.1933 73.285 67.03 73.285 69.31C73.285 71.59 74.4567 73.3 76.8 74.44C79.2067 75.5167 82.8483 76.5933 87.725 77.67C92.7917 78.8733 96.94 80.0767 100.17 81.28C103.4 82.4833 106.155 84.3833 108.435 86.98C110.778 89.5767 111.95 93.0917 111.95 97.525C111.95 101.325 110.873 104.808 108.72 107.975C106.63 111.078 103.463 113.548 99.22 115.385C94.9767 117.222 89.815 118.14 83.735 118.14Z" fill="white"/>
</g>
<defs>
<filter id="filter0_d" x="2.07108" y="11.3297" width="161.844" height="161.844" filterUnits="userSpaceOnUse" color-interpolation-filters="sRGB">
<feFlood flood-opacity="0" result="BackgroundImageFix"/>
<feColorMatrix in="SourceAlpha" type="matrix" values="0 0 0 0 0 0 0 0 0 0 0 0 0 0 0 0 0 0 127 0"/>
<feOffset dy="2"/>
<feGaussianBlur stdDeviation="1"/>
<feColorMatrix type="matrix" values="0 0 0 0 0 0 0 0 0 0 0 0 0 0 0 0 0 0 1 0"/>
<feBlend mode="normal" in2="BackgroundImageFix" result="effect1_dropShadow"/>
<feBlend mode="normal" in="SourceGraphic" in2="effect1_dropShadow" result="shape"/>
</filter>
<filter id="filter1_d" x="0.363953" y="12.071" width="166.551" height="166.551" filterUnits="userSpaceOnUse" color-interpolation-filters="sRGB">
<feFlood flood-opacity="0" result="BackgroundImageFix"/>
<feColorMatrix in="SourceAlpha" type="matrix" values="0 0 0 0 0 0 0 0 0 0 0 0 0 0 0 0 0 0 127 0"/>
<feOffset dy="4"/>
<feGaussianBlur stdDeviation="2"/>
<feColorMatrix type="matrix" values="0 0 0 0 0 0 0 0 0 0 0 0 0 0 0 0 0 0 0.25 0"/>
<feBlend mode="normal" in2="BackgroundImageFix" result="effect1_dropShadow"/>
<feBlend mode="normal" in="SourceGraphic" in2="effect1_dropShadow" result="shape"/>
</filter>
<filter id="filter2_d" x="2.47612" y="2.07104" width="161.258" height="161.258" filterUnits="userSpaceOnUse" color-interpolation-filters="sRGB">
<feFlood flood-opacity="0" result="BackgroundImageFix"/>
<feColorMatrix in="SourceAlpha" type="matrix" values="0 0 0 0 0 0 0 0 0 0 0 0 0 0 0 0 0 0 127 0"/>
<feOffset dy="2"/>
<feGaussianBlur stdDeviation="1"/>
<feColorMatrix type="matrix" values="0 0 0 0 0 0 0 0 0 0 0 0 0 0 0 0 0 0 1 0"/>
<feBlend mode="normal" in2="BackgroundImageFix" result="effect1_dropShadow"/>
<feBlend mode="normal" in="SourceGraphic" in2="effect1_dropShadow" result="shape"/>
</filter>
<filter id="filter3_d" x="0.0710602" y="2.07104" width="166.551" height="166.551" filterUnits="userSpaceOnUse" color-interpolation-filters="sRGB">
<feFlood flood-opacity="0" result="BackgroundImageFix"/>
<feColorMatrix in="SourceAlpha" type="matrix" values="0 0 0 0 0 0 0 0 0 0 0 0 0 0 0 0 0 0 127 0"/>
<feOffset dy="4"/>
<feGaussianBlur stdDeviation="2"/>
<feColorMatrix type="matrix" values="0 0 0 0 0 0 0 0 0 0 0 0 0 0 0 0 0 0 0.25 0"/>
<feBlend mode="normal" in2="BackgroundImageFix" result="effect1_dropShadow"/>
<feBlend mode="normal" in="SourceGraphic" in2="effect1_dropShadow" result="shape"/>
</filter>
<filter id="filter4_d" x="54.66" y="49.36" width="59.29" height="72.78" filterUnits="userSpaceOnUse" color-interpolation-filters="sRGB">
<feFlood flood-opacity="0" result="BackgroundImageFix"/>
<feColorMatrix in="SourceAlpha" type="matrix" values="0 0 0 0 0 0 0 0 0 0 0 0 0 0 0 0 0 0 127 0"/>
<feOffset dy="2"/>
<feGaussianBlur stdDeviation="1"/>
<feColorMatrix type="matrix" values="0 0 0 0 0.0156863 0 0 0 0 0.00392157 0 0 0 0 0.137255 0 0 0 1 0"/>
<feBlend mode="normal" in2="BackgroundImageFix" result="effect1_dropShadow"/>
<feBlend mode="normal" in="SourceGraphic" in2="effect1_dropShadow" result="shape"/>
</filter>
<linearGradient id="paint0_linear" x1="131.664" y1="-1.53301" x2="130.603" y2="220.852" gradientUnits="userSpaceOnUse">
<stop stop-color="#FF1F49"/>
<stop offset="1" stop-color="#1807DB"/>
</linearGradient>
<linearGradient id="paint1_linear" x1="131.371" y1="-11.533" x2="130.31" y2="210.852" gradientUnits="userSpaceOnUse">
<stop stop-color="#FF1F49"/>
<stop offset="1" stop-color="#1807DB"/>
</linearGradient>
</defs>
</svg>
